# xmcd
#
# Track frame offsets:
#	150
#	19221
#	34386
#	56807
#	73738
#	89631
#	101584
#	124422
#	142780
#	156322
#	171255
#	185760
#	203218
#
# Disc length: 2864 seconds
#
# Revision: 1
# Processed by: cddbd v1.5.2PL0 Copyright (c) Steve Scherf et al.
# Submitted via: audiograbber 1.83.01
#
DISCID=c70b2e0d
DTITLE=Keb' Mo' - Just like you
DYEAR=1900
DGENRE=Blues
TTITLE0=That's not love
TTITLE1=Perpetual Blues machine
TTITLE2=More than one way home
TTITLE3=I'm on your side
TTITLE4=Just like you
TTITLE5=You can love yourself
TTITLE6=Dangerous mood
TTITLE7=The action
TTITLE8=Hand it over
TTITLE9=Standin' at the station
TTITLE10=Momma, where is my Daddy
TTITLE11=Last fair deal gone down
TTITLE12=Lullaby Baby Blues
EXTD=
EXTT0=
EXTT1=
EXTT2=
EXTT3=
EXTT4=
EXTT5=
EXTT6=
EXTT7=
EXTT8=
EXTT9=
EXTT10=
EXTT11=
EXTT12=
PLAYORDER=
